# xmcd
#
# Track frame offsets: 
#        150
#        6024
#        7613
#        22326
#        38442
#        54982
#        65441
#        81030
#        93689
#
# Disc length: 1422 seconds
#
# Revision: 0
# Processed by: cddbd v1.5.2PL0 Copyright (c) Steve Scherf et al.
# Submitted via: ExactAudioCopy v0.99pb5
#
DISCID=5d058c09
DTITLE=Huge L - Rapeinta
DYEAR=2010
DGENRE=Hip-Hop
TTITLE0=(p)ääkköset
TTITLE1=N-sana
TTITLE2=White Nigga
TTITLE3=Palleaflow
TTITLE4=No1
TTITLE5=Summeri
TTITLE6=H.U.G
TTITLE7=Dena2roitu
TTITLE8=Väsy420
EXTD=
EXTT0=
EXTT1=
EXTT2=
EXTT3=
EXTT4=
EXTT5=
EXTT6=
EXTT7=
EXTT8=
PLAYORDER=
